<?xml version="1.0" encoding="UTF-8"?>
<!DOCTYPE svg PUBLIC "-//W3C//DTD SVG 1.1//EN" "http://www.w3.org/Graphics/SVG/1.1/DTD/svg11.dtd">
<svg xmlns="http://www.w3.org/2000/svg" version="1.1" width="500px" height="500px" style="shape-rendering:geometricPrecision; text-rendering:geometricPrecision; image-rendering:optimizeQuality; fill-rule:evenodd; clip-rule:evenodd" xmlns:xlink="http://www.w3.org/1999/xlink">
<g><path style="opacity:1" fill="#000000" d="M -0.5,-0.5 C 108.5,-0.5 217.5,-0.5 326.5,-0.5C 326.5,52.1667 326.5,104.833 326.5,157.5C 274.166,157.333 221.832,157.5 169.5,158C 167.481,158.45 165.648,159.283 164,160.5C 162.512,218.108 162.012,275.774 162.5,333.5C 108.167,333.5 53.8333,333.5 -0.5,333.5C -0.5,222.167 -0.5,110.833 -0.5,-0.5 Z"/></g>
<g><path style="opacity:1" fill="#525252" d="M 327.5,-0.5 C 328.167,-0.5 328.833,-0.5 329.5,-0.5C 329.5,52.5 329.5,105.5 329.5,158.5C 329.5,159.167 329.5,159.833 329.5,160.5C 328.833,160.167 328.167,159.833 327.5,159.5C 327.5,159.167 327.5,158.833 327.5,158.5C 327.5,105.5 327.5,52.5 327.5,-0.5 Z"/></g>
<g><path style="opacity:1" fill="#959595" d="M 329.5,-0.5 C 330.167,-0.5 330.833,-0.5 331.5,-0.5C 331.5,52.5 331.5,105.5 331.5,158.5C 330.833,158.5 330.167,158.5 329.5,158.5C 329.5,105.5 329.5,52.5 329.5,-0.5 Z"/></g>
<g><path style="opacity:1" fill="#c0bfbf" d="M 331.5,-0.5 C 331.833,-0.5 332.167,-0.5 332.5,-0.5C 332.171,52.5716 332.505,105.572 333.5,158.5C 332.833,158.5 332.167,158.5 331.5,158.5C 331.5,105.5 331.5,52.5 331.5,-0.5 Z"/></g>
<g><path style="opacity:1" fill="#d3d3d3" d="M 332.5,-0.5 C 333.167,-0.5 333.833,-0.5 334.5,-0.5C 334.171,52.5716 334.505,105.572 335.5,158.5C 334.833,158.5 334.167,158.5 333.5,158.5C 332.505,105.572 332.171,52.5716 332.5,-0.5 Z"/></g>
<g><path style="opacity:1" fill="#edebeb" d="M 334.5,-0.5 C 335.167,-0.5 335.833,-0.5 336.5,-0.5C 336.5,52.1667 336.5,104.833 336.5,157.5C 390.833,157.5 445.167,157.5 499.5,157.5C 499.5,157.833 499.5,158.167 499.5,158.5C 444.833,158.5 390.167,158.5 335.5,158.5C 334.505,105.572 334.171,52.5716 334.5,-0.5 Z"/></g>
<g><path style="opacity:1" fill="#fefefe" d="M 336.5,-0.5 C 390.833,-0.5 445.167,-0.5 499.5,-0.5C 499.5,52.1667 499.5,104.833 499.5,157.5C 445.167,157.5 390.833,157.5 336.5,157.5C 336.5,104.833 336.5,52.1667 336.5,-0.5 Z"/></g>
<g><path style="opacity:1" fill="#120f0f" d="M 326.5,-0.5 C 326.833,-0.5 327.167,-0.5 327.5,-0.5C 327.5,52.5 327.5,105.5 327.5,158.5C 327.167,158.5 326.833,158.5 326.5,158.5C 274.832,158.333 223.166,158.5 171.5,159C 168.724,159.066 166.558,160.232 165,162.5C 163.841,191.249 163.341,220.082 163.5,249C 163.5,277.335 163.833,305.502 164.5,333.5C 164.5,333.833 164.5,334.167 164.5,334.5C 109.5,334.5 54.5,334.5 -0.5,334.5C -0.5,334.167 -0.5,333.833 -0.5,333.5C 53.8333,333.5 108.167,333.5 162.5,333.5C 162.012,275.774 162.512,218.108 164,160.5C 165.648,159.283 167.481,158.45 169.5,158C 221.832,157.5 274.166,157.333 326.5,157.5C 326.5,104.833 326.5,52.1667 326.5,-0.5 Z"/></g>
<g><path style="opacity:1" fill="#ccb7b7" d="M 331.5,158.5 C 332.167,158.5 332.833,158.5 333.5,158.5C 334.167,158.5 334.833,158.5 335.5,158.5C 335.5,159.167 335.5,159.833 335.5,160.5C 334.833,160.5 334.167,160.5 333.5,160.5C 332.833,160.5 332.167,160.5 331.5,160.5C 331.5,159.833 331.5,159.167 331.5,158.5 Z"/></g>
<g><path style="opacity:1" fill="#efdada" d="M 335.5,158.5 C 390.167,158.5 444.833,158.5 499.5,158.5C 499.5,159.167 499.5,159.833 499.5,160.5C 444.833,160.5 390.167,160.5 335.5,160.5C 335.5,159.833 335.5,159.167 335.5,158.5 Z"/></g>
<g><path style="opacity:1" fill="#280c0b" d="M 326.5,159.5 C 275.177,161.496 223.511,162.162 171.5,161.5C 171.5,161.167 171.5,160.833 171.5,160.5C 223.095,159.505 274.762,159.171 326.5,159.5 Z"/></g>
<g><path style="opacity:1" fill="#371010" d="M 326.5,158.5 C 326.833,158.5 327.167,158.5 327.5,158.5C 327.5,158.833 327.5,159.167 327.5,159.5C 327.5,160.5 327.5,161.5 327.5,162.5C 275.5,162.5 223.5,162.5 171.5,162.5C 171.5,162.167 171.5,161.833 171.5,161.5C 223.511,162.162 275.177,161.496 326.5,159.5C 326.5,159.167 326.5,158.833 326.5,158.5 Z"/></g>
<g><path style="opacity:1" fill="#694444" d="M 327.5,159.5 C 328.167,159.833 328.833,160.167 329.5,160.5C 329.5,161.5 329.5,162.5 329.5,163.5C 329.167,163.5 328.833,163.5 328.5,163.5C 328.5,162.833 328.167,162.5 327.5,162.5C 327.5,161.5 327.5,160.5 327.5,159.5 Z"/></g>
<g><path style="opacity:1" fill="#967473" d="M 329.5,158.5 C 330.167,158.5 330.833,158.5 331.5,158.5C 331.5,159.167 331.5,159.833 331.5,160.5C 331.5,161.5 331.5,162.5 331.5,163.5C 331.167,163.5 330.833,163.5 330.5,163.5C 330.167,163.5 329.833,163.5 329.5,163.5C 329.5,162.5 329.5,161.5 329.5,160.5C 329.5,159.833 329.5,159.167 329.5,158.5 Z"/></g>
<g><path style="opacity:1" fill="#caa5a5" d="M 333.5,160.5 C 334.167,160.5 334.833,160.5 335.5,160.5C 335.5,161.167 335.5,161.833 335.5,162.5C 334.167,162.5 333.5,161.833 333.5,160.5 Z"/></g>
<g><path style="opacity:1" fill="#e1baba" d="M 335.5,160.5 C 390.167,160.5 444.833,160.5 499.5,160.5C 499.5,161.5 499.5,162.5 499.5,163.5C 444.664,163.832 389.997,163.499 335.5,162.5C 335.5,161.833 335.5,161.167 335.5,160.5 Z"/></g>
<g><path style="opacity:1" fill="#4a1515" d="M 171.5,162.5 C 223.5,162.5 275.5,162.5 327.5,162.5C 327.5,163.167 327.5,163.833 327.5,164.5C 275.499,164.333 223.499,164.5 171.5,165C 170.956,165.717 170.289,166.217 169.5,166.5C 169.733,164.938 170.4,163.605 171.5,162.5 Z"/></g>
<g><path style="opacity:1" fill="#c69191" d="M 331.5,160.5 C 332.167,160.5 332.833,160.5 333.5,160.5C 333.5,161.833 334.167,162.5 335.5,162.5C 389.997,163.499 444.664,163.832 499.5,163.5C 499.5,163.833 499.5,164.167 499.5,164.5C 443.428,164.829 387.428,164.496 331.5,163.5C 331.5,162.5 331.5,161.5 331.5,160.5 Z"/></g>
<g><path style="opacity:1" fill="#7e3838" d="M 327.5,162.5 C 328.167,162.5 328.5,162.833 328.5,163.5C 328.833,164.167 329.167,164.833 329.5,165.5C 328.833,165.5 328.167,165.5 327.5,165.5C 327.5,165.167 327.5,164.833 327.5,164.5C 327.5,163.833 327.5,163.167 327.5,162.5 Z"/></g>
<g><path style="opacity:1" fill="#975050" d="M 328.5,163.5 C 328.833,163.5 329.167,163.5 329.5,163.5C 329.833,163.5 330.167,163.5 330.5,163.5C 330.833,164.167 331.167,164.833 331.5,165.5C 330.833,165.5 330.167,165.5 329.5,165.5C 329.167,164.833 328.833,164.167 328.5,163.5 Z"/></g>
<g><path style="opacity:1" fill="#c87c7c" d="M 330.5,163.5 C 330.833,163.5 331.167,163.5 331.5,163.5C 387.428,164.496 443.428,164.829 499.5,164.5C 499.5,164.833 499.5,165.167 499.5,165.5C 443.5,165.5 387.5,165.5 331.5,165.5C 331.167,164.833 330.833,164.167 330.5,163.5 Z"/></g>
<g><path style="opacity:1" fill="#8d2828" d="M 327.5,165.5 C 328.167,165.5 328.833,165.5 329.5,165.5C 329.5,166.167 329.5,166.833 329.5,167.5C 277.167,167.5 224.833,167.5 172.5,167.5C 172.832,223.669 172.499,279.669 171.5,335.5C 171.5,334.833 171.167,334.5 170.5,334.5C 170.333,278.832 170.5,223.166 171,167.5C 223.264,166.835 275.431,166.169 327.5,165.5 Z"/></g>
<g><path style="opacity:1" fill="#b85756" d="M 329.5,165.5 C 330.167,165.5 330.833,165.5 331.5,165.5C 387.5,165.5 443.5,165.5 499.5,165.5C 499.5,166.167 499.5,166.833 499.5,167.5C 442.833,167.5 386.167,167.5 329.5,167.5C 329.5,166.833 329.5,166.167 329.5,165.5 Z"/></g>
<g><path style="opacity:1" fill="#190707" d="M 167.5,163.5 C 167.291,164.922 166.791,166.255 166,167.5C 165.833,223.002 165.333,278.335 164.5,333.5C 164.333,277.499 164.5,221.499 165,165.5C 165.417,164.244 166.25,163.577 167.5,163.5 Z"/></g>
<g><path style="opacity:1" fill="#260b0b" d="M 171.5,160.5 C 171.5,160.833 171.5,161.167 171.5,161.5C 171.5,161.833 171.5,162.167 171.5,162.5C 169.224,162.756 168.057,164.09 168,166.5C 167.5,222.499 167.333,278.499 167.5,334.5C 166.5,334.5 165.5,334.5 164.5,334.5C 164.5,334.167 164.5,333.833 164.5,333.5C 165.333,278.335 165.833,223.002 166,167.5C 166.791,166.255 167.291,164.922 167.5,163.5C 168.262,161.738 169.596,160.738 171.5,160.5 Z"/></g>
<g><path style="opacity:1" fill="#441414" d="M 171.5,162.5 C 170.4,163.605 169.733,164.938 169.5,166.5C 169.5,222.5 169.5,278.5 169.5,334.5C 168.833,334.5 168.167,334.5 167.5,334.5C 167.333,278.499 167.5,222.499 168,166.5C 168.057,164.09 169.224,162.756 171.5,162.5 Z"/></g>
<g><path style="opacity:1" fill="#130505" d="M 326.5,158.5 C 326.5,158.833 326.5,159.167 326.5,159.5C 274.762,159.171 223.095,159.505 171.5,160.5C 169.596,160.738 168.262,161.738 167.5,163.5C 166.25,163.577 165.417,164.244 165,165.5C 164.5,221.499 164.333,277.499 164.5,333.5C 163.833,305.502 163.5,277.335 163.5,249C 163.341,220.082 163.841,191.249 165,162.5C 166.558,160.232 168.724,159.066 171.5,159C 223.166,158.5 274.832,158.333 326.5,158.5 Z"/></g>
<g><path style="opacity:1" fill="#6e1f1f" d="M 327.5,164.5 C 327.5,164.833 327.5,165.167 327.5,165.5C 275.431,166.169 223.264,166.835 171,167.5C 170.5,223.166 170.333,278.832 170.5,334.5C 170.167,334.5 169.833,334.5 169.5,334.5C 169.5,278.5 169.5,222.5 169.5,166.5C 170.289,166.217 170.956,165.717 171.5,165C 223.499,164.5 275.499,164.333 327.5,164.5 Z"/></g>
<g><path style="opacity:1" fill="#a93030" d="M 329.5,167.5 C 386.167,167.5 442.833,167.5 499.5,167.5C 499.5,278.167 499.5,388.833 499.5,499.5C 390.167,499.5 280.833,499.5 171.5,499.5C 171.5,445.833 171.5,392.167 171.5,338.5C 171.5,337.5 171.5,336.5 171.5,335.5C 172.499,279.669 172.832,223.669 172.5,167.5C 224.833,167.5 277.167,167.5 329.5,167.5 Z"/></g>
<g><path style="opacity:1" fill="#514545" d="M -0.5,334.5 C 54.5,334.5 109.5,334.5 164.5,334.5C 165.5,334.5 166.5,334.5 167.5,334.5C 167.5,335.167 167.5,335.833 167.5,336.5C 111.5,336.5 55.5,336.5 -0.5,336.5C -0.5,335.833 -0.5,335.167 -0.5,334.5 Z"/></g>
<g><path style="opacity:1" fill="#723a3a" d="M 167.5,334.5 C 168.167,334.5 168.833,334.5 169.5,334.5C 169.5,335.167 169.5,335.833 169.5,336.5C 168.833,336.5 168.167,336.5 167.5,336.5C 167.5,335.833 167.5,335.167 167.5,334.5 Z"/></g>
<g><path style="opacity:1" fill="#796d6d" d="M -0.5,337.5 C -0.5,337.167 -0.5,336.833 -0.5,336.5C 55.5,336.5 111.5,336.5 167.5,336.5C 167.5,337.167 167.5,337.833 167.5,338.5C 166.5,338.5 165.5,338.5 164.5,338.5C 109.669,337.501 54.6692,337.168 -0.5,337.5 Z"/></g>
<g><path style="opacity:1" fill="#8e5757" d="M 167.5,336.5 C 168.167,336.5 168.833,336.5 169.5,336.5C 169.5,337.167 169.5,337.833 169.5,338.5C 168.833,338.5 168.167,338.5 167.5,338.5C 167.5,337.833 167.5,337.167 167.5,336.5 Z"/></g>
<g><path style="opacity:1" fill="#963f3f" d="M 169.5,334.5 C 169.833,334.5 170.167,334.5 170.5,334.5C 171.167,334.5 171.5,334.833 171.5,335.5C 171.5,336.5 171.5,337.5 171.5,338.5C 170.833,338.5 170.167,338.5 169.5,338.5C 169.5,337.833 169.5,337.167 169.5,336.5C 169.5,335.833 169.5,335.167 169.5,334.5 Z"/></g>
<g><path style="opacity:1" fill="#9b9b9b" d="M -0.5,337.5 C 54.6692,337.168 109.669,337.501 164.5,338.5C 163.508,338.328 162.842,338.662 162.5,339.5C 108.167,339.5 53.8333,339.5 -0.5,339.5C -0.5,338.833 -0.5,338.167 -0.5,337.5 Z"/></g>
<g><path style="opacity:1" fill="#a08787" d="M 164.5,338.5 C 165.5,338.5 166.5,338.5 167.5,338.5C 167.5,339.167 167.5,339.833 167.5,340.5C 166.29,340.068 165.29,339.401 164.5,338.5 Z"/></g>
<g><path style="opacity:1" fill="#ab7373" d="M 167.5,338.5 C 168.167,338.5 168.833,338.5 169.5,338.5C 169.5,339.833 169.5,341.167 169.5,342.5C 169.167,342.5 168.833,342.5 168.5,342.5C 168.672,341.508 168.338,340.842 167.5,340.5C 167.5,339.833 167.5,339.167 167.5,338.5 Z"/></g>
<g><path style="opacity:1" fill="#bfbfbf" d="M -0.5,339.5 C 53.8333,339.5 108.167,339.5 162.5,339.5C 163.167,340.167 163.833,340.833 164.5,341.5C 164.5,341.833 164.5,342.167 164.5,342.5C 163.833,342.5 163.167,342.5 162.5,342.5C 108.336,341.501 54.0026,341.168 -0.5,341.5C -0.5,340.833 -0.5,340.167 -0.5,339.5 Z"/></g>
<g><path style="opacity:1" fill="#b6a2a1" d="M 164.5,338.5 C 165.29,339.401 166.29,340.068 167.5,340.5C 167.631,341.239 167.464,341.906 167,342.5C 166.329,341.748 165.496,341.414 164.5,341.5C 163.833,340.833 163.167,340.167 162.5,339.5C 162.842,338.662 163.508,338.328 164.5,338.5 Z"/></g>
<g><path style="opacity:1" fill="#e1e1e1" d="M -0.5,341.5 C 54.0026,341.168 108.336,341.501 162.5,342.5C 162.5,342.833 162.5,343.167 162.5,343.5C 108.167,343.5 53.8333,343.5 -0.5,343.5C -0.5,342.833 -0.5,342.167 -0.5,341.5 Z"/></g>
<g><path style="opacity:1" fill="#fefefe" d="M -0.5,343.5 C 53.8333,343.5 108.167,343.5 162.5,343.5C 162.5,395.5 162.5,447.5 162.5,499.5C 108.167,499.5 53.8333,499.5 -0.5,499.5C -0.5,447.5 -0.5,395.5 -0.5,343.5 Z"/></g>
<g><path style="opacity:1" fill="#f6eaea" d="M 162.5,342.5 C 163.167,342.5 163.833,342.5 164.5,342.5C 164.5,342.833 164.5,343.167 164.5,343.5C 164.5,395.5 164.5,447.5 164.5,499.5C 163.833,499.5 163.167,499.5 162.5,499.5C 162.5,447.5 162.5,395.5 162.5,343.5C 162.5,343.167 162.5,342.833 162.5,342.5 Z"/></g>
<g><path style="opacity:1" fill="#eed7d7" d="M 164.5,343.5 C 166.496,395.156 167.162,447.156 166.5,499.5C 165.833,499.5 165.167,499.5 164.5,499.5C 164.5,447.5 164.5,395.5 164.5,343.5 Z"/></g>
<g><path style="opacity:1" fill="#e5c3c3" d="M 167.5,340.5 C 168.338,340.842 168.672,341.508 168.5,342.5C 168.5,394.833 168.5,447.167 168.5,499.5C 167.833,499.5 167.167,499.5 166.5,499.5C 167.162,447.156 166.496,395.156 164.5,343.5C 164.5,343.167 164.5,342.833 164.5,342.5C 164.5,342.167 164.5,341.833 164.5,341.5C 165.496,341.414 166.329,341.748 167,342.5C 167.464,341.906 167.631,341.239 167.5,340.5 Z"/></g>
<g><path style="opacity:1" fill="#cc8585" d="M 168.5,342.5 C 168.833,342.5 169.167,342.5 169.5,342.5C 170.499,394.664 170.832,446.997 170.5,499.5C 169.833,499.5 169.167,499.5 168.5,499.5C 168.5,447.167 168.5,394.833 168.5,342.5 Z"/></g>
<g><path style="opacity:1" fill="#bc6060" d="M 169.5,338.5 C 170.167,338.5 170.833,338.5 171.5,338.5C 171.5,392.167 171.5,445.833 171.5,499.5C 171.167,499.5 170.833,499.5 170.5,499.5C 170.832,446.997 170.499,394.664 169.5,342.5C 169.5,341.167 169.5,339.833 169.5,338.5 Z"/></g>
</svg>
